<mxfile host="app.diagrams.net" modified="2023-07-07T17:09:18.613Z" agent="Mozilla/5.0 (Macintosh; Intel Mac OS X 10_15_7) AppleWebKit/537.36 (KHTML, like Gecko) Chrome/114.0.0.0 Safari/537.36" version="21.6.1" etag="gHBVZUtW822x0M0gMVhT" type="github">
  <diagram name="Page-1" id="q4ic_3UBJjM-jKloe3kP">
    <mxGraphModel>
      <root>
        <mxCell id="0" />
        <mxCell id="1" parent="0" />
      </root>
    </mxGraphModel>
  </diagram>
</mxfile>
